<?xml version="1.0" encoding="UTF-8"?><svg id="a" xmlns="http://www.w3.org/2000/svg" viewBox="0 0 172.83 207.43"><defs><style>.b,.c{font-family:TimesNewRomanPS-ItalicMT, 'Times New Roman';font-style:italic;}.c,.d,.e,.f,.g,.h{fill:#1c1c1a;}.c,.g,.h{font-size:10px;}.i{stroke-dasharray:3.8 3.8;}.i,.d,.e,.j,.k,.l,.m,.n,.o,.p,.q{stroke:#1c1c1a;stroke-miterlimit:10;}.i,.j{stroke-width:.5px;}.i,.j,.k,.l,.m,.n{fill:none;}.d,.p{stroke-width:.95px;}.e,.l,.n,.q{stroke-width:1.06px;}.k{stroke-width:.95px;}.m,.o{stroke-width:1.41px;}.r,.h{font-family:TimesNewRomanPSMT, 'Times New Roman';}.s{letter-spacing:-.07em;}.t{letter-spacing:-.02em;}.n{stroke-linecap:round;}.o,.p,.q{fill:#fff;}</style></defs><line class="j" x1="72.47" y1="135.54" x2="72.47" y2="133.54"/><line class="i" x1="72.47" y1="129.74" x2="72.47" y2="63.26"/><line class="j" x1="72.47" y1="61.36" x2="72.47" y2="59.36"/><line class="j" x1="72.47" y1="134.96" x2="71.22" y2="133.4"/><line class="i" x1="68.84" y1="130.44" x2="27.22" y2="78.6"/><line class="j" x1="26.03" y1="77.12" x2="24.77" y2="75.56"/><line class="j" x1="72.47" y1="134.96" x2="73.73" y2="133.4"/><line class="i" x1="76.1" y1="130.44" x2="117.73" y2="78.6"/><line class="j" x1="118.92" y1="77.12" x2="120.17" y2="75.56"/><circle class="k" cx="72.47" cy="134.96" r="72"/><circle class="p" cx="72.47" cy="134.96" r="6.54"/><circle class="d" cx="72.47" cy="134.96" r="1.94"/><text class="h" transform="translate(85.64 134.96)"><tspan x="0" y="0">Sun</tspan></text><rect class="o" x="67.97" y="53.96" width="9" height="18"/><line class="l" x1="72.47" y1="53.96" x2="72.47" y2="46.17"/><polygon class="f" points="74.27 48.28 72.47 46.48 70.68 48.28 70.68 46.75 72.47 44.96 74.27 46.75 74.27 48.28"/><line class="l" x1="115.67" y1="68.36" x2="115.67" y2="60.57"/><polygon class="f" points="117.47 62.68 115.67 60.88 113.88 62.68 113.88 61.15 115.67 59.36 117.47 61.15 117.47 62.68"/><line class="l" x1="29.27" y1="68.36" x2="29.27" y2="60.57"/><polygon class="f" points="31.07 62.68 29.27 60.88 27.48 62.68 27.48 61.15 29.27 59.36 31.07 61.15 31.07 62.68"/><text class="g" transform="translate(63.44 42.62)"><tspan class="r" x="0" y="0">+</tspan><tspan class="b" x="5.64" y="0">x</tspan></text><text class="c" transform="translate(107.07 57.97)"><tspan x="0" y="0">+x</tspan></text><text class="c" transform="translate(124.51 85.49)"><tspan x="0" y="0">+y</tspan></text><text class="c" transform="translate(21.03 57.97)"><tspan x="0" y="0">+x</tspan></text><text class="h" transform="translate(52.79 8.31)"><tspan class="s" x="0" y="0">T</tspan><tspan x="5.41" y="0">o ta</tspan><tspan class="t" x="20.13" y="0">r</tspan><tspan x="23.28" y="0">get</tspan></text><text class="h" transform="translate(151.18 133.02)"><tspan x="0" y="0">Earth</tspan><tspan x="0" y="12">orbit</tspan></text><text class="c" transform="translate(6.33 69.24)"><tspan x="0" y="0">+z</tspan></text><text class="c" transform="translate(122.87 67.52)"><tspan x="0" y="0">+z</tspan></text><rect class="o" x="111.17" y="68.36" width="9" height="18"/><line class="l" x1="120.17" y1="75.56" x2="124.85" y2="69.33"/><polygon class="f" points="125.02 72.09 124.66 69.58 122.15 69.94 123.06 68.72 125.57 68.36 125.93 70.87 125.02 72.09"/><line class="l" x1="24.77" y1="75.56" x2="20.1" y2="69.33"/><polygon class="f" points="22.8 69.94 20.29 69.58 19.93 72.09 19.01 70.87 19.37 68.36 21.89 68.72 22.8 69.94"/><line class="n" x1="115.67" y1="77.63" x2="121.89" y2="79.73"/><circle class="q" cx="121.89" cy="79.73" r="2.63"/><circle class="e" cx="121.89" cy="79.73" r=".33"/><line class="l" x1="26.47" y1="76.6" x2="20.25" y2="78.7"/><circle class="q" cx="20.25" cy="78.7" r="2.63"/><rect class="o" x="24.77" y="68.36" width="9" height="18"/><line class="m" x1="18.52" y1="80.69" x2="21.98" y2="77.23"/><line class="m" x1="21.79" y1="80.24" x2="18.33" y2="76.79"/><line class="l" x1="54.03" y1="22.02" x2="54.03" y2="14.22"/><polygon class="f" points="55.82 16.33 54.03 14.54 52.23 16.33 52.23 14.81 54.03 13.02 55.82 14.81 55.82 16.33"/><line class="l" x1="63.03" y1="22.02" x2="63.03" y2="14.22"/><polygon class="f" points="64.82 16.33 63.03 14.54 61.23 16.33 61.23 14.81 63.03 13.02 64.82 14.81 64.82 16.33"/><line class="l" x1="72.03" y1="22.02" x2="72.03" y2="14.22"/><polygon class="f" points="73.82 16.33 72.03 14.54 70.23 16.33 70.23 14.81 72.03 13.02 73.82 14.81 73.82 16.33"/><line class="l" x1="81.03" y1="22.02" x2="81.03" y2="14.22"/><polygon class="f" points="82.82 16.33 81.03 14.54 79.23 16.33 79.23 14.81 81.03 13.02 82.82 14.81 82.82 16.33"/><line class="l" x1="90.03" y1="22.02" x2="90.03" y2="14.22"/><polygon class="f" points="91.82 16.33 90.03 14.54 88.23 16.33 88.23 14.81 90.03 13.02 91.82 14.81 91.82 16.33"/></svg>
